<mxfile host="app.diagrams.net" modified="2021-04-27T10:09:46.553Z" agent="5.0 (Macintosh; Intel Mac OS X 10_14_6) AppleWebKit/537.36 (KHTML, like Gecko) Chrome/90.0.4430.85 Safari/537.36" etag="ltor9FWBEDEGhZju4lW5" version="14.6.6" type="github">
  <diagram id="C5RBs43oDa-KdzZeNtuy" name="Page-1">
    <mxGraphModel dx="1773" dy="646" grid="1" gridSize="10" guides="1" tooltips="1" connect="1" arrows="1" fold="1" page="1" pageScale="1" pageWidth="827" pageHeight="1169" math="0" shadow="0">
      <root>
        <mxCell id="WIyWlLk6GJQsqaUBKTNV-0" />
        <mxCell id="WIyWlLk6GJQsqaUBKTNV-1" parent="WIyWlLk6GJQsqaUBKTNV-0" />
        <mxCell id="YyxHBvUzOl7bU0V3z23c-2" value="" style="edgeStyle=orthogonalEdgeStyle;rounded=0;orthogonalLoop=1;jettySize=auto;html=1;" edge="1" parent="WIyWlLk6GJQsqaUBKTNV-1" source="YyxHBvUzOl7bU0V3z23c-0" target="YyxHBvUzOl7bU0V3z23c-1">
          <mxGeometry relative="1" as="geometry" />
        </mxCell>
        <mxCell id="YyxHBvUzOl7bU0V3z23c-0" value="获取当前区块高度" style="rounded=0;whiteSpace=wrap;html=1;fillColor=#f8cecc;strokeColor=#b85450;" vertex="1" parent="WIyWlLk6GJQsqaUBKTNV-1">
          <mxGeometry x="120" y="60" width="120" height="50" as="geometry" />
        </mxCell>
        <mxCell id="YyxHBvUzOl7bU0V3z23c-4" value="" style="edgeStyle=orthogonalEdgeStyle;rounded=0;orthogonalLoop=1;jettySize=auto;html=1;" edge="1" parent="WIyWlLk6GJQsqaUBKTNV-1" source="YyxHBvUzOl7bU0V3z23c-1" target="YyxHBvUzOl7bU0V3z23c-3">
          <mxGeometry relative="1" as="geometry" />
        </mxCell>
        <mxCell id="YyxHBvUzOl7bU0V3z23c-1" value="当前高度减去确认数获得执行高度" style="whiteSpace=wrap;html=1;rounded=0;" vertex="1" parent="WIyWlLk6GJQsqaUBKTNV-1">
          <mxGeometry x="120" y="160" width="120" height="60" as="geometry" />
        </mxCell>
        <mxCell id="YyxHBvUzOl7bU0V3z23c-7" value="" style="edgeStyle=orthogonalEdgeStyle;rounded=0;orthogonalLoop=1;jettySize=auto;html=1;" edge="1" parent="WIyWlLk6GJQsqaUBKTNV-1" source="YyxHBvUzOl7bU0V3z23c-3" target="YyxHBvUzOl7bU0V3z23c-6">
          <mxGeometry relative="1" as="geometry" />
        </mxCell>
        <mxCell id="YyxHBvUzOl7bU0V3z23c-3" value="获取执行高度" style="whiteSpace=wrap;html=1;rounded=0;" vertex="1" parent="WIyWlLk6GJQsqaUBKTNV-1">
          <mxGeometry x="120" y="270" width="120" height="60" as="geometry" />
        </mxCell>
        <mxCell id="YyxHBvUzOl7bU0V3z23c-11" value="" style="edgeStyle=orthogonalEdgeStyle;rounded=0;orthogonalLoop=1;jettySize=auto;html=1;" edge="1" parent="WIyWlLk6GJQsqaUBKTNV-1" source="YyxHBvUzOl7bU0V3z23c-6" target="YyxHBvUzOl7bU0V3z23c-10">
          <mxGeometry relative="1" as="geometry" />
        </mxCell>
        <mxCell id="YyxHBvUzOl7bU0V3z23c-6" value="从执行高度到当前高度，循环检查每个块的交易信息" style="whiteSpace=wrap;html=1;rounded=0;" vertex="1" parent="WIyWlLk6GJQsqaUBKTNV-1">
          <mxGeometry x="30" y="380" width="300" height="70" as="geometry" />
        </mxCell>
        <mxCell id="YyxHBvUzOl7bU0V3z23c-10" value="检查每个交易hash是否符合当前入金规则" style="whiteSpace=wrap;html=1;rounded=0;" vertex="1" parent="WIyWlLk6GJQsqaUBKTNV-1">
          <mxGeometry x="30" y="530" width="300" height="60" as="geometry" />
        </mxCell>
        <mxCell id="YyxHBvUzOl7bU0V3z23c-12" value="" style="endArrow=none;dashed=1;html=1;dashPattern=1 3;strokeWidth=2;entryX=0.5;entryY=1;entryDx=0;entryDy=0;" edge="1" parent="WIyWlLk6GJQsqaUBKTNV-1" target="YyxHBvUzOl7bU0V3z23c-10">
          <mxGeometry width="50" height="50" relative="1" as="geometry">
            <mxPoint x="180" y="640" as="sourcePoint" />
            <mxPoint x="190" y="590" as="targetPoint" />
          </mxGeometry>
        </mxCell>
        <mxCell id="YyxHBvUzOl7bU0V3z23c-15" value="" style="edgeStyle=orthogonalEdgeStyle;rounded=0;orthogonalLoop=1;jettySize=auto;html=1;" edge="1" parent="WIyWlLk6GJQsqaUBKTNV-1" source="YyxHBvUzOl7bU0V3z23c-14" target="YyxHBvUzOl7bU0V3z23c-10">
          <mxGeometry relative="1" as="geometry" />
        </mxCell>
        <mxCell id="YyxHBvUzOl7bU0V3z23c-21" value="" style="edgeStyle=orthogonalEdgeStyle;rounded=0;orthogonalLoop=1;jettySize=auto;html=1;" edge="1" parent="WIyWlLk6GJQsqaUBKTNV-1" source="YyxHBvUzOl7bU0V3z23c-14" target="YyxHBvUzOl7bU0V3z23c-20">
          <mxGeometry relative="1" as="geometry" />
        </mxCell>
        <mxCell id="YyxHBvUzOl7bU0V3z23c-14" value="&lt;div&gt;&lt;br&gt;&lt;/div&gt;&lt;div&gt;TRX入金细则&lt;/div&gt;&lt;div&gt;&amp;nbsp; &amp;nbsp;1. receipt 中 result 为 &quot;SUCCESS&quot;&lt;/div&gt;&lt;div&gt;&amp;nbsp; &amp;nbsp; &amp;nbsp;2. contractResult 为 &quot;0000000000000000000000000000000000000000000000000000000000000000&quot;&lt;/div&gt;&lt;div&gt;&amp;nbsp; &amp;nbsp; &amp;nbsp;3. log 中 address 字段须为 &quot;a614f803b6fd780986a42c78ec9c7f77e6ded13c&quot; 代表是USDT合约&lt;/div&gt;&lt;div&gt;&amp;nbsp; &amp;nbsp; &amp;nbsp;4. log 中 topics 第一个字段为 Transfer(address,address,uint256): &quot;ddf252ad1be2c89b69c2b068fc378daa952ba7f163c4a11628f55a4df523b3ef&quot;&lt;/div&gt;&lt;div&gt;注意目前仅支持一笔交易中含有一笔USDT转账&lt;/div&gt;&lt;div&gt;&amp;nbsp; &amp;nbsp; &amp;nbsp;5. log 中 topics 第三个字段是否解析为指定钱包地址&amp;nbsp;&lt;/div&gt;&lt;div&gt;&amp;nbsp; &amp;nbsp; &amp;nbsp;6. log 中 data 是否为指定的合法转账数额&lt;/div&gt;&lt;div&gt;&amp;nbsp; &amp;nbsp; &amp;nbsp;7. blockNumber 是否小于当前区块号减 19 （可以考虑100个块为最终确认）&lt;/div&gt;" style="shape=card;whiteSpace=wrap;html=1;align=left;" vertex="1" parent="WIyWlLk6GJQsqaUBKTNV-1">
          <mxGeometry x="-67.5" y="650" width="495" height="260" as="geometry" />
        </mxCell>
        <mxCell id="YyxHBvUzOl7bU0V3z23c-23" value="" style="edgeStyle=orthogonalEdgeStyle;rounded=0;orthogonalLoop=1;jettySize=auto;html=1;" edge="1" parent="WIyWlLk6GJQsqaUBKTNV-1" source="YyxHBvUzOl7bU0V3z23c-20" target="YyxHBvUzOl7bU0V3z23c-22">
          <mxGeometry relative="1" as="geometry" />
        </mxCell>
        <mxCell id="YyxHBvUzOl7bU0V3z23c-20" value="检查此交易的address是否是我们的地址" style="whiteSpace=wrap;html=1;align=center;" vertex="1" parent="WIyWlLk6GJQsqaUBKTNV-1">
          <mxGeometry x="540" y="741.25" width="230" height="77.5" as="geometry" />
        </mxCell>
        <mxCell id="YyxHBvUzOl7bU0V3z23c-26" value="" style="edgeStyle=orthogonalEdgeStyle;rounded=0;orthogonalLoop=1;jettySize=auto;html=1;" edge="1" parent="WIyWlLk6GJQsqaUBKTNV-1" source="YyxHBvUzOl7bU0V3z23c-22" target="YyxHBvUzOl7bU0V3z23c-25">
          <mxGeometry relative="1" as="geometry" />
        </mxCell>
        <mxCell id="YyxHBvUzOl7bU0V3z23c-22" value="检查此交易是否已经入帐过（deposit表是否有此hash和确认数是否达标）" style="whiteSpace=wrap;html=1;align=center;" vertex="1" parent="WIyWlLk6GJQsqaUBKTNV-1">
          <mxGeometry x="550" y="530" width="210" height="60" as="geometry" />
        </mxCell>
        <mxCell id="YyxHBvUzOl7bU0V3z23c-28" value="" style="edgeStyle=orthogonalEdgeStyle;rounded=0;orthogonalLoop=1;jettySize=auto;html=1;" edge="1" parent="WIyWlLk6GJQsqaUBKTNV-1" source="YyxHBvUzOl7bU0V3z23c-25" target="YyxHBvUzOl7bU0V3z23c-27">
          <mxGeometry relative="1" as="geometry" />
        </mxCell>
        <mxCell id="YyxHBvUzOl7bU0V3z23c-25" value="记录或更新存款信息（每次扫链确认数量会不断更新，某个块会被扫x次，X=最小入账确认数量）" style="whiteSpace=wrap;html=1;align=center;" vertex="1" parent="WIyWlLk6GJQsqaUBKTNV-1">
          <mxGeometry x="545" y="380" width="220" height="60" as="geometry" />
        </mxCell>
        <mxCell id="YyxHBvUzOl7bU0V3z23c-30" value="" style="edgeStyle=orthogonalEdgeStyle;rounded=0;orthogonalLoop=1;jettySize=auto;html=1;" edge="1" parent="WIyWlLk6GJQsqaUBKTNV-1" source="YyxHBvUzOl7bU0V3z23c-27" target="YyxHBvUzOl7bU0V3z23c-29">
          <mxGeometry relative="1" as="geometry" />
        </mxCell>
        <mxCell id="YyxHBvUzOl7bU0V3z23c-27" value="当前确认数量满足最小确认数量后调用加钱服务" style="whiteSpace=wrap;html=1;align=center;" vertex="1" parent="WIyWlLk6GJQsqaUBKTNV-1">
          <mxGeometry x="540" y="210" width="230" height="60" as="geometry" />
        </mxCell>
        <mxCell id="YyxHBvUzOl7bU0V3z23c-29" value="&lt;span&gt;完成入账&lt;/span&gt;" style="ellipse;whiteSpace=wrap;html=1;align=center;fillColor=#dae8fc;strokeColor=#6c8ebf;" vertex="1" parent="WIyWlLk6GJQsqaUBKTNV-1">
          <mxGeometry x="595" y="60" width="120" height="60" as="geometry" />
        </mxCell>
      </root>
    </mxGraphModel>
  </diagram>
</mxfile>
